# This file uses centimeters as units for non-parametric coordinates.
# UVs by headus UVLayout v2.09.00 2015/09/22 07:54:21

mtllib stone.mtl
g default
v 5.213793 -0.000000 5.675806
v 10.231788 -0.000000 5.675806
v 5.213793 -0.000000 -2.175196
v 10.231788 -0.000000 -2.175196
v 10.231788 -0.000000 5.535890
v 5.213793 -0.000000 5.535890
v 5.213793 -0.000000 -2.059923
v 10.231788 -0.000000 -2.059923
v 5.313145 0.000000 5.675805
v 5.313145 0.000000 5.535890
v 5.313146 0.000000 -2.059923
v 5.313146 0.000000 -2.175196
v 5.915357 2.999133 -1.108746
v 5.915358 2.999133 4.589325
v 10.138325 -0.000000 5.535891
v 10.138325 -0.000000 5.675805
v 9.535010 2.999133 4.589325
v 9.535010 2.999133 -1.108746
v 10.138325 0.000000 -2.175196
v 10.138325 0.000000 -2.059923
v 5.683372 2.900577 4.941116
v 5.764130 2.900578 4.941116
v 9.686238 2.900577 4.941116
v 9.762209 2.900577 4.941117
v 9.762209 2.900578 4.827387
v 9.762209 2.900577 -1.346808
v 9.762209 2.900578 -1.440507
v 9.686239 2.900578 -1.440507
v 5.764131 2.900577 -1.440507
v 5.683372 2.900578 -1.440507
v 5.683372 2.900578 -1.346808
v 5.683372 2.900577 4.827388
v 5.213793 0.122809 5.675806
v 5.313145 0.122810 5.675805
v 10.138325 0.122809 5.675805
v 10.231788 0.122809 5.675806
v 10.231788 0.122810 5.535890
v 10.231788 0.122809 -2.059923
v 10.231788 0.122810 -2.175196
v 10.138325 0.122810 -2.175196
v 5.313146 0.122809 -2.175196
v 5.213793 0.122810 -2.175196
v 5.213793 0.122810 -2.059923
v 5.213793 0.122809 5.535890
v 5.764131 3.103317 5.060157
v 5.764131 2.900578 5.109465
v 9.686238 2.900577 5.109465
v 9.686238 3.103318 5.060156
v 9.686239 2.900578 -1.608855
v 5.764131 2.900577 -1.608855
v 5.764131 3.103318 -1.559547
v 9.686239 3.103317 -1.559547
v 9.881250 3.103317 4.827387
v 9.930557 2.900578 4.827387
v 9.930557 2.900577 -1.346808
v 9.881250 3.103317 -1.346808
v 5.564332 3.103318 -1.346808
v 5.515024 2.900578 -1.346808
v 5.515024 2.900577 4.827388
v 5.564332 3.103317 4.827388
v 5.764130 3.152626 4.827388
v 9.686238 3.152626 4.827388
v 9.846383 2.900577 5.025291
v 9.859405 3.081473 5.038313
v 5.599199 2.900577 5.025291
v 5.586177 3.081473 5.038313
v 9.846383 2.900578 -1.524681
v 9.859405 3.081473 -1.537703
v 5.764130 3.152625 -1.346808
v 9.686238 3.152626 -1.346808
v 5.599199 2.900578 -1.524681
v 5.586177 3.081473 -1.537703
v 7.725184 2.999133 -1.108746
v 7.725184 2.999133 4.589325
v 5.915358 2.999133 1.740290
v 7.725184 2.173921 1.740290
v 9.535010 2.999133 1.740290
v 7.725184 2.999133 1.316561
v 7.607454 2.999133 1.740290
v 7.725184 2.999133 2.173733
v 7.858159 2.999133 1.740290
v 7.804058 2.360253 1.739810
v 7.724431 2.360252 1.486076
v 7.653932 2.360252 1.739810
v 7.724431 2.360252 1.999361
# 152 texture coords
vt 0.129817 0.795727
vt 0.129815 0.988581
vt 0.007308 0.795728
vt 0.007306 0.988582
vt 0.972982 0.571517
vt 0.972984 0.968742
vt 0.440680 0.588552
vt 0.440690 0.983071
vt 0.710059 0.567137
vt 0.710059 0.964369
vt 0.145664 0.982726
vt 0.145663 0.588206
vt 0.630680 0.499482
vt 0.625481 0.488030
vt 0.630493 0.111124
vt 0.625050 0.122400
vt 0.083254 0.499642
vt 0.089129 0.488420
vt 0.082615 0.112138
vt 0.088766 0.123156
vt 0.121844 0.305880
vt 0.590816 0.305363
vt 0.356164 0.156465
vt 0.356494 0.454782
vt 0.817293 0.406888
vt 0.818710 0.364024
vt 0.294364 0.946034
vt 0.294360 0.625346
vt 0.294360 0.619436
vt 0.440684 0.581286
vt 0.447057 0.588553
vt 0.447072 0.983072
vt 0.294366 0.950901
vt 0.440687 0.989056
vt 0.447062 0.581287
vt 0.447066 0.989060
vt 0.473518 0.927240
vt 0.473517 0.604358
vt 0.720171 0.567138
vt 0.720167 0.964367
vt 0.473519 0.933887
vt 0.710059 0.972548
vt 0.473517 0.598103
vt 0.710058 0.559443
vt 0.720170 0.972545
vt 0.720168 0.559443
vt 0.291914 0.625006
vt 0.291914 0.945688
vt 0.279727 0.953283
vt 0.151743 0.986524
vt 0.139344 0.982726
vt 0.139344 0.588206
vt 0.279727 0.616468
vt 0.151755 0.583247
vt 0.139344 0.988714
vt 0.139344 0.580940
vt 0.736443 0.931534
vt 0.736438 0.608640
vt 0.736437 0.601987
vt 0.972980 0.563340
vt 0.983094 0.571514
vt 0.983092 0.968742
vt 0.736442 0.937793
vt 0.972985 0.976435
vt 0.983090 0.563335
vt 0.983094 0.976435
vt 0.132340 0.795728
vt 0.132336 0.988582
vt 0.129813 0.991507
vt 0.007304 0.991509
vt 0.004933 0.988581
vt 0.004936 0.795728
vt 0.007310 0.792176
vt 0.129819 0.792174
vt 0.132335 0.991509
vt 0.132342 0.792175
vt 0.004930 0.991507
vt 0.004937 0.792175
vt 0.321485 0.305662
vt 0.356343 0.316656
vt 0.356319 0.295847
vt 0.391975 0.305584
vt 0.590998 0.454489
vt 0.610999 0.472695
vt 0.102022 0.473232
vt 0.121991 0.455000
vt 0.098820 0.467350
vt 0.098454 0.144463
vt 0.121660 0.156761
vt 0.101663 0.138572
vt 0.610617 0.137989
vt 0.590668 0.156238
vt 0.613848 0.143896
vt 0.614202 0.466782
vt 0.080584 0.144483
vt 0.080958 0.467370
vt 0.633328 0.143875
vt 0.633679 0.466762
vt 0.632669 0.477460
vt 0.610076 0.489866
vt 0.610662 0.507027
vt 0.102373 0.507590
vt 0.102921 0.490428
vt 0.082087 0.477603
vt 0.063472 0.144503
vt 0.063854 0.467390
vt 0.632294 0.133380
vt 0.081708 0.134406
vt 0.102504 0.120954
vt 0.101932 0.103778
vt 0.610222 0.103247
vt 0.609689 0.120397
vt 0.650437 0.143856
vt 0.650787 0.466743
vt 0.643919 0.493867
vt 0.615401 0.507527
vt 0.610678 0.520882
vt 0.102388 0.521442
vt 0.096751 0.507847
vt 0.070272 0.493309
vt 0.050020 0.467406
vt 0.049635 0.144520
vt 0.643896 0.117227
vt 0.615395 0.102767
vt 0.069514 0.119001
vt 0.095896 0.103609
vt 0.101918 0.089912
vt 0.610208 0.089405
vt 0.664274 0.143841
vt 0.664623 0.466728
vt 0.640962 0.508533
vt 0.633778 0.507736
vt 0.627326 0.515915
vt 0.084034 0.514936
vt 0.079390 0.507650
vt 0.072280 0.508034
vt 0.633849 0.103009
vt 0.641502 0.102441
vt 0.627551 0.094654
vt 0.070919 0.104190
vt 0.078479 0.104303
vt 0.082953 0.096867
vt 0.867154 0.423365
vt 0.854546 0.457812
vt 0.809333 0.427032
vt 0.801758 0.401702
vt 0.877826 0.387476
vt 0.823088 0.385538
vt 0.869661 0.351308
vt 0.803006 0.367986
vt 0.860000 0.316314
vt 0.812560 0.343432
vn -0.011514 0.230794 0.972935
vn -0.011375 0.230861 0.972920
vn 0.011368 0.231006 0.972886
vn 0.011508 0.230940 0.972900
vn -0.993413 0.114592 0.000192
vn 0.001773 0.295105 0.955463
vn -0.014131 0.999889 -0.004618
vn 0.011368 0.231007 -0.972886
vn -0.011375 0.230862 -0.972920
vn -0.011514 0.230795 -0.972934
vn 0.011508 0.230941 -0.972900
vn -0.000000 -1.000000 -0.000000
vn -0.000000 -1.000000 -0.000000
vn -0.000000 -1.000000 -0.000000
vn -0.000000 -1.000000 -0.000000
vn 0.972661 0.232111 0.007446
vn 0.972650 0.232159 0.007363
vn 0.972556 0.232553 -0.007341
vn 0.972566 0.232508 -0.007429
vn -0.972566 0.232509 -0.007429
vn -0.972556 0.232554 -0.007341
vn -0.972650 0.232160 0.007363
vn -0.972660 0.232113 0.007446
vn -0.140856 0.985905 0.090284
vn -0.008004 0.978600 0.205614
vn 0.008000 0.978590 0.205666
vn 0.142797 0.985518 0.091452
vn 0.963601 0.082511 0.254293
vn 0.963601 0.082511 0.254293
vn -0.000000 -1.000000 0.000001
vn -0.000000 -1.000000 0.000001
vn -0.963601 0.082509 0.254295
vn -0.963601 0.082509 0.254295
vn 0.000000 -1.000000 0.000000
vn -0.000000 -1.000000 0.000000
vn 0.956629 0.080985 -0.279824
vn 0.956630 0.080985 -0.279824
vn -0.007987 0.974538 -0.224081
vn -0.145877 0.984855 -0.093706
vn 0.147956 0.984424 -0.094963
vn 0.007983 0.974525 -0.224136
vn -0.956630 0.080985 -0.279824
vn -0.956630 0.080985 -0.279824
vn 0.000001 -1.000000 0.000000
vn 0.000001 -1.000000 0.000000
vn 0.000001 -1.000000 0.000000
vn 0.000001 -1.000000 0.000000
vn -0.299087 0.079787 -0.950884
vn -0.299087 0.079787 -0.950884
vn -0.238360 0.971163 -0.005151
vn -0.192130 0.964638 -0.180444
vn -0.238206 0.971201 0.005162
vn -0.191761 0.967541 0.164599
vn -0.299091 0.079786 0.950883
vn -0.299091 0.079786 0.950883
vn 0.000001 -1.000000 -0.000000
vn 0.000002 -1.000000 0.000000
vn 0.306870 0.079293 0.948443
vn 0.306870 0.079293 0.948443
vn 0.196564 0.966563 0.164679
vn 0.243720 0.969832 0.005158
vn 0.243877 0.969793 -0.005147
vn 0.196941 0.963651 -0.180530
vn 0.306874 0.079292 -0.948442
vn 0.306874 0.079292 -0.948441
vn -0.000001 -1.000000 0.000000
vn 0.000001 -1.000000 -0.000000
vn 0.000000 0.243309 0.969949
vn 0.000000 0.243413 0.969923
vn 0.000000 0.255697 0.966757
vn 0.000000 0.255697 0.966757
vn 0.000000 0.255697 0.966757
vn -0.000000 0.243407 0.969924
vn 0.000000 0.255696 0.966757
vn -0.000000 0.243308 0.969949
vn 0.987480 0.157746 0.000001
vn 0.987462 0.157858 0.000000
vn 0.986010 0.166684 -0.000000
vn 0.986010 0.166684 0.000001
vn 0.986010 0.166684 -0.000000
vn 0.987465 0.157839 0.000000
vn 0.986010 0.166683 0.000002
vn 0.987480 0.157746 0.000002
vn -0.000004 0.243308 -0.969949
vn -0.000000 0.243407 -0.969924
vn -0.000000 0.255697 -0.966757
vn -0.000004 0.255697 -0.966757
vn -0.000000 0.243413 -0.969923
vn 0.000000 0.255697 -0.966757
vn 0.000000 0.255696 -0.966757
vn -0.000000 0.243308 -0.969949
vn -0.987480 0.157746 0.000000
vn -0.987465 0.157839 0.000000
vn -0.986010 0.166684 0.000000
vn -0.986010 0.166684 0.000000
vn -0.986010 0.166684 0.000000
vn -0.987462 0.157859 0.000000
vn -0.986010 0.166684 0.000000
vn -0.987480 0.157746 0.000000
vn 0.000005 0.000000 1.000000
vn 0.000000 0.000000 1.000000
vn -0.000000 0.000000 1.000000
vn -0.000005 0.000000 1.000000
vn 1.000000 0.000000 0.000000
vn 1.000000 0.000000 0.000000
vn 1.000000 0.000000 0.000000
vn 1.000000 0.000000 0.000000
vn 0.000000 0.000000 -1.000000
vn -0.000001 0.000000 -1.000000
vn -0.000000 0.000000 -1.000000
vn -0.000002 0.000000 -1.000000
vn -1.000000 0.000000 0.000000
vn -1.000000 0.000000 0.000000
vn -1.000000 0.000000 0.000000
vn -1.000000 0.000000 0.000000
vn -0.000000 -1.000000 0.000000
vn -0.000000 -1.000000 0.000000
vn -0.000000 -1.000000 0.000000
vn -0.000000 -1.000000 0.000000
vn 0.000000 -1.000000 0.000001
vn 0.000000 -1.000000 0.000001
vn 0.000000 -1.000000 0.000001
vn 0.000000 -1.000000 0.000001
vn 0.000000 -1.000000 0.000000
vn -0.000000 -1.000000 0.000000
vn -0.000000 -1.000000 0.000000
vn 0.000000 -1.000000 0.000000
vn 0.000000 -1.000000 -0.000000
vn 0.000000 -1.000000 -0.000000
vn 0.000000 -1.000000 -0.000000
vn 0.000000 -1.000000 -0.000000
vn 0.000000 0.840451 -0.541887
vn 0.000000 0.840451 -0.541887
vn 0.000000 0.840451 -0.541887
vn 0.000000 0.840451 -0.541887
vn 0.000000 0.840451 -0.541887
vn 0.000002 -1.000000 -0.000005
vn 0.000002 -1.000000 -0.000005
vn 0.000005 -1.000000 0.000002
vn 0.000005 -1.000000 0.000002
vn -0.000002 -1.000000 -0.000005
vn -0.000002 -1.000000 -0.000005
vn -0.000000 0.840452 0.541887
vn -0.000000 0.840452 0.541887
vn -0.000000 0.840452 0.541887
vn -0.000000 0.840452 0.541887
vn -0.000000 0.840452 0.541887
vn -0.000004 -1.000000 0.000002
vn -0.000004 -1.000000 0.000002
vn 0.712343 0.701831 -0.000000
vn 0.712343 0.701831 -0.000000
vn 0.712343 0.701831 -0.000000
vn 0.712343 0.701831 -0.000000
vn 0.712344 0.701831 -0.000000
vn -0.712343 0.701831 0.000000
vn -0.712343 0.701831 0.000000
vn -0.712343 0.701831 0.000000
vn -0.712343 0.701831 0.000000
vn -0.712343 0.701831 0.000000
vn 0.994913 0.100742 0.000167
vn 0.001786 0.301654 -0.953416
vn -0.000000 1.000000 -0.000000
vn -0.000000 1.000000 -0.000000
vn 0.035877 0.999356 -0.000006
vn -0.000023 0.999983 0.005774
vn -0.000000 1.000000 -0.000000
vn -0.000023 0.999984 -0.005731
vn 0.000000 1.000000 -0.000000
vn -0.000000 1.000000 0.000000
vn -0.000000 1.000000 -0.000000
vn -0.035128 0.999383 -0.000007
vn -0.000000 1.000000 0.000000
vn -0.000000 1.000000 -0.000000
s 1
g pCube6
usemtl initialShadingGroup
f 45/97/1 46/113/2 47/114/3 48/98/4
s 2
f 82/25/5 83/145/6 76/146/7
s 3
f 49/106/8 50/105/9 51/95/10 52/96/11
s 4
f 10/1/12 11/2/13 20/4/14 15/3/15
s 5
f 53/100/16 54/101/17 55/102/18 56/103/19
s 6
f 57/109/20 58/110/21 59/111/22 60/112/23
s 7
f 61/93/24 45/97/25 48/98/26 62/94/27
s 5
f 63/13/28 54/116/17 53/100/16 64/14/29
s 4
f 9/74/30 10/1/12 15/3/15 16/73/31
s 6
f 60/112/23 59/124/22 65/15/32 66/16/33
s 4
f 11/2/13 12/69/34 19/70/35 20/4/14
s 5
f 56/103/19 55/119/18 67/17/36 68/18/37
s 7
f 51/95/38 69/88/39 70/87/40 52/96/41
s 6
f 71/19/42 58/126/21 57/109/20 72/20/43
s 4
f 6/67/44 10/1/12 9/74/30 1/76/45
f 7/68/46 11/2/13 10/1/12 6/67/44
f 3/75/47 12/69/34 11/2/13 7/68/46
s 3
f 72/20/48 51/108/10 50/125/9 71/19/49
s 7
f 57/109/50 69/90/39 51/108/38 72/20/51
f 60/112/52 61/91/24 69/90/39 57/109/50
f 66/16/53 45/107/25 61/91/24 60/112/52
s 1
f 65/15/54 46/123/2 45/107/1 66/16/55
s 4
f 16/73/31 15/3/15 5/72/56 2/78/57
s 1
f 48/99/4 47/115/3 63/13/58 64/14/59
s 7
f 62/84/27 48/99/26 64/14/60 53/100/61
f 70/85/40 62/84/27 53/100/61 56/103/62
f 52/104/41 70/85/40 56/103/62 68/18/63
s 3
f 67/17/64 49/120/8 52/104/11 68/18/65
s 4
f 20/4/14 19/70/35 4/77/66 8/71/67
f 15/3/15 20/4/14 8/71/67 5/72/56
s 9
f 33/60/68 34/5/69 22/58/70 21/59/71
f 23/57/72 22/58/70 34/5/69 35/6/73
f 24/63/74 23/57/72 35/6/73 36/64/75
s 10
f 36/30/76 37/7/77 25/28/78 24/29/79
f 26/27/80 25/28/78 37/7/77 38/8/81
f 27/33/82 26/27/80 38/8/81 39/34/83
s 11
f 39/44/84 40/9/85 28/38/86 27/43/87
f 40/9/85 41/10/88 29/37/89 28/38/86
f 30/41/90 29/37/89 41/10/88 42/42/91
s 12
f 42/50/92 43/11/93 31/48/94 30/49/95
f 32/47/96 31/48/94 43/11/93 44/12/97
f 21/53/98 32/47/96 44/12/97 33/54/99
s 9
f 1/65/100 9/61/101 34/5/69 33/60/68
f 35/6/73 34/5/69 9/61/101 16/62/102
f 36/64/75 35/6/73 16/62/102 2/66/103
s 10
f 2/35/104 5/31/105 37/7/77 36/30/76
f 38/8/81 37/7/77 5/31/105 8/32/106
f 39/34/83 38/8/81 8/32/106 4/36/107
s 11
f 19/39/108 40/9/85 39/44/84 4/46/109
f 12/40/110 41/10/88 40/9/85 19/39/108
f 42/42/91 41/10/88 12/40/110 3/45/111
s 12
f 3/55/112 7/51/113 43/11/93 42/50/92
f 44/12/97 43/11/93 7/51/113 6/52/114
f 33/54/99 44/12/97 6/52/114 1/56/115
s 13
f 22/129/116 23/130/117 47/114/118 46/113/119
f 28/121/120 29/122/121 50/105/122 49/106/123
f 25/117/124 26/118/125 55/102/126 54/101/127
f 31/127/128 32/128/129 59/111/130 58/110/131
s off
f 17/83/132 74/22/133 14/92/134 61/93/135 62/94/136
s 13
f 24/132/137 25/133/124 54/116/127 63/13/138
f 32/139/129 21/137/139 65/15/140 59/124/130
f 26/134/125 27/135/141 67/17/142 55/119/126
s off
f 13/89/143 73/21/144 18/86/145 70/87/146 69/88/147
s 13
f 30/141/148 31/142/128 58/126/131 71/19/149
f 29/140/121 30/141/148 71/19/149 50/125/122
s off
f 14/92/150 75/23/151 13/89/152 69/90/153 61/91/154
s 13
f 21/137/139 22/138/116 46/123/119 65/15/140
f 23/131/117 24/132/137 63/13/138 47/115/118
s off
f 18/86/155 77/24/156 17/83/157 62/84/158 70/85/159
s 13
f 27/135/141 28/136/120 49/120/123 67/17/142
s 2
f 83/152/6 84/26/160 76/150/7
f 76/150/7 84/26/160 85/148/161
f 85/148/161 82/25/5 76/146/7
f 13/89/162 75/23/163 79/81/164 78/79/165 73/21/166
f 80/82/167 79/81/164 75/23/163 14/92/168 74/22/169
f 77/24/170 81/80/171 80/82/167 74/22/169 17/83/172
f 73/21/166 78/79/165 81/80/171 77/24/170 18/86/173
f 81/143/171 78/144/165 83/145/6 82/25/5
f 78/151/165 79/149/164 84/26/160 83/152/6
f 85/148/161 84/26/160 79/149/164 80/147/167
f 80/147/167 81/143/171 82/25/5 85/148/161
